<svg xmlns="http://www.w3.org/2000/svg" viewBox="0 0 674.71 674.71"><defs><style>.cls-1{fill:#fff;}</style></defs><title>Ativo 3</title><g id="Camada_2" data-name="Camada 2"><g id="Camada_1-2" data-name="Camada 1"><polygon class="cls-1" points="402.35 624.71 50 624.71 50 50 389.65 50 389.65 137.24 414.65 162.24 624.71 162.24 624.71 416.76 674.71 416.76 674.71 137.24 649.71 112.23 439.65 112.23 439.65 25 414.65 0 25 0 0 25 0 649.71 25 674.71 402.35 674.71 402.35 624.71"/><polygon class="cls-1" points="674.71 473.12 552.71 473.12 552.71 351.12 473.12 351.12 473.12 473.12 351.12 473.12 351.12 552.71 473.12 552.71 473.12 674.71 552.71 674.71 552.71 552.71 674.71 552.71 674.71 473.12"/></g></g></svg>