<svg xmlns="http://www.w3.org/2000/svg" viewBox="0 0 633 213"><defs><style>.cls-1{fill:#fff;}.cls-2{fill:#3c3c3b;}</style></defs><title>Ativo 5</title><g id="Camada_2" data-name="Camada 2"><g id="Camada_1-2" data-name="Camada 1"><path class="cls-1" d="M633,213H0V0H633ZM3,210H630V3H3Z"/><rect class="cls-1" x="11.85" y="11.5" width="190" height="190"/><path class="cls-1" d="M268.19,18.56a24,24,0,0,1,6.29.69,7.8,7.8,0,0,1,3.92,2.34,9.75,9.75,0,0,1,2,4.47,36.12,36.12,0,0,1,.58,7,35.58,35.58,0,0,1-.58,7,9.6,9.6,0,0,1-2,4.41,7.57,7.57,0,0,1-3.92,2.32,25,25,0,0,1-6.29.66h-5.14V62h-5.13V18.56Zm-5.14,24h5.53a13.85,13.85,0,0,0,3.61-.39,4.1,4.1,0,0,0,2.24-1.43,6.51,6.51,0,0,0,1.16-2.9,27.7,27.7,0,0,0,.33-4.72,27.7,27.7,0,0,0-.33-4.72,6.51,6.51,0,0,0-1.16-2.9,4.26,4.26,0,0,0-2.24-1.46,12.9,12.9,0,0,0-3.61-.42h-5.53Z"/><path class="cls-1" d="M307.39,18.56v5.07H289.88v13.2h16.9v4.91h-16.9V56.87h17.56V62H284.75V18.56Z"/><path class="cls-1" d="M322.4,18.56a25.13,25.13,0,0,1,6,.6,7.57,7.57,0,0,1,3.75,2.1,8.29,8.29,0,0,1,1.93,3.95,28.53,28.53,0,0,1,.56,6.15,30.32,30.32,0,0,1-.39,5.3,9.55,9.55,0,0,1-1.3,3.56,5.9,5.9,0,0,1-2.45,2.16,12.47,12.47,0,0,1-3.92,1l9,18.55h-5.69l-8.67-18.33h-4.52V62h-5.14V18.56Zm-5.68,20.7h6.07a14.63,14.63,0,0,0,3.34-.31,4,4,0,0,0,2.07-1.13,4.72,4.72,0,0,0,1.07-2.34,20.22,20.22,0,0,0,.31-3.95,21,21,0,0,0-.31-4A5.39,5.39,0,0,0,328.2,25a4.14,4.14,0,0,0-2.07-1.27,12.84,12.84,0,0,0-3.34-.36h-6.07Z"/><path class="cls-1" d="M355.41,24.63a8.85,8.85,0,0,0-2.65-1.38,10.14,10.14,0,0,0-3.14-.44,8,8,0,0,0-5.05,1.54q-2,1.54-2,4.92a5.9,5.9,0,0,0,1.16,4,8,8,0,0,0,3,2.1,27.94,27.94,0,0,0,4.19,1.32,24.94,24.94,0,0,1,4.58,1.6,10,10,0,0,1,4.34,3.81,13.32,13.32,0,0,1,1.41,6.74q0,6.8-3.12,10.38t-9.53,3.59a13.09,13.09,0,0,1-5.6-1A8.45,8.45,0,0,1,339.6,59a10.64,10.64,0,0,1-1.71-4.12,25.12,25.12,0,0,1-.47-5.05v-.66h4.85v.66a18,18,0,0,0,.25,3,6.54,6.54,0,0,0,1,2.52,5.14,5.14,0,0,0,2,1.71,7.57,7.57,0,0,0,3.36.63,8.29,8.29,0,0,0,3.4-.63,5.85,5.85,0,0,0,2.29-1.8,7.31,7.31,0,0,0,1.27-2.76,15.13,15.13,0,0,0,.39-3.59,7.53,7.53,0,0,0-.78-3.83,6.06,6.06,0,0,0-2.87-2.24,18.51,18.51,0,0,0-2.43-.88l-2.7-.8c-.92-.28-1.83-.58-2.73-.91a12.15,12.15,0,0,1-2.52-1.27q-4.64-2.59-4.63-9.33a13.79,13.79,0,0,1,1-5.61,9.87,9.87,0,0,1,2.7-3.67,10.52,10.52,0,0,1,3.95-2,18.46,18.46,0,0,1,4.75-.6,16.83,16.83,0,0,1,5.63.91,13,13,0,0,1,4.64,2.84v8.34h-4.81Z"/><path class="cls-1" d="M376.23,18a38.65,38.65,0,0,1,4.11.19,7.79,7.79,0,0,1,3.09.94,5.94,5.94,0,0,1,2.15,2.21A13.35,13.35,0,0,1,387,25.24a43,43,0,0,1,.75,6.15q.23,3.68.22,8.92c0,3.49-.07,6.47-.22,8.91a43.35,43.35,0,0,1-.75,6.16,13.12,13.12,0,0,1-1.38,3.92,5.76,5.76,0,0,1-2.15,2.15,8.12,8.12,0,0,1-3.09.91,42.43,42.43,0,0,1-8.23,0,8.18,8.18,0,0,1-3.09-.91,5.76,5.76,0,0,1-2.15-2.15,13.12,13.12,0,0,1-1.38-3.92,43.35,43.35,0,0,1-.75-6.16c-.14-2.44-.22-5.42-.22-8.91s.08-6.47.22-8.92a43,43,0,0,1,.75-6.15,13.35,13.35,0,0,1,1.38-3.95A5.94,5.94,0,0,1,369,19.08a7.84,7.84,0,0,1,3.09-.94A38.72,38.72,0,0,1,376.23,18Zm0,5a11.8,11.8,0,0,0-3.34.39,3.4,3.4,0,0,0-2.05,2.1,17.54,17.54,0,0,0-1,5.19c-.18,2.31-.27,5.54-.27,9.66s.09,7.28.27,9.6a17.54,17.54,0,0,0,1,5.19,3.4,3.4,0,0,0,2.05,2.1,14.5,14.5,0,0,0,6.68,0,3.41,3.41,0,0,0,2-2.1,17.22,17.22,0,0,0,1-5.19c.18-2.32.28-5.52.28-9.6s-.1-7.35-.28-9.66a17.22,17.22,0,0,0-1-5.19,3.41,3.41,0,0,0-2-2.1A11.9,11.9,0,0,0,376.23,23Z"/><path class="cls-1" d="M396.82,18.56l13,31v-31h4.63V62h-3.81L396.38,28.88V62h-4.64V18.56Z"/><path class="cls-1" d="M432.54,18.56,442.42,62h-5.08l-1.82-8.5H424.14L422.27,62h-4.81l10.11-43.39Zm-7.4,30.25h9.44l-4.58-22Z"/><path class="cls-1" d="M451.36,18.56V56.87h16.78V62H446.23V18.56Z"/><path class="cls-1" d="M268.69,84.8a11.29,11.29,0,0,1,5.74,1.33,9.25,9.25,0,0,1,3.59,4,21.7,21.7,0,0,1,1.84,6.79,77.09,77.09,0,0,1,.53,9.63,76.36,76.36,0,0,1-.53,9.64,21.53,21.53,0,0,1-1.84,6.73,9.08,9.08,0,0,1-3.59,4,11.5,11.5,0,0,1-5.74,1.3H257.92V84.8Zm-5.75,38.32h5.75a5.35,5.35,0,0,0,3.25-.94,6.27,6.27,0,0,0,2-3,21.77,21.77,0,0,0,1.05-5.17c.2-2.09.3-4.6.3-7.51s-.1-5.41-.3-7.5A22.07,22.07,0,0,0,274,93.86a6.42,6.42,0,0,0-2-3,5.23,5.23,0,0,0-3.25-1h-5.75Z"/><path class="cls-1" d="M298.39,84.8l9.88,43.4h-5.08l-1.82-8.51H290l-1.88,8.51h-4.8l10.1-43.4ZM291,115.06h9.44l-4.58-22Z"/><path class="cls-1" d="M334.55,84.8v5.08h-9.33V128.2H320V89.88H310.7V84.8Z"/><path class="cls-1" d="M352.05,84.8l9.88,43.4h-5.08L355,119.69H343.65l-1.87,8.51H337l10.11-43.4Zm-7.4,30.26h9.44l-4.58-22Z"/><path class="cls-1" d="M377.05,84.8q5.58,0,7.93,2.43c1.56,1.62,2.34,4.35,2.34,8.17a18.28,18.28,0,0,1-.91,6.41,8,8,0,0,1-2.4,3.53,8.1,8.1,0,0,1,3.09,3.75,18.52,18.52,0,0,1,1.22,7.51,20.65,20.65,0,0,1-.61,5.36,8.59,8.59,0,0,1-1.88,3.59,7.29,7.29,0,0,1-3.31,2,16.43,16.43,0,0,1-4.91.64H365.24V84.8Zm-6.68,18.77h6.74a10.35,10.35,0,0,0,2.54-.27,3.45,3.45,0,0,0,1.71-1,4.75,4.75,0,0,0,1-2.07,16.4,16.4,0,0,0,.3-3.48,16.16,16.16,0,0,0-.3-3.4,5.42,5.42,0,0,0-1-2.18A3.48,3.48,0,0,0,379.57,90a10.16,10.16,0,0,0-2.79-.33h-6.41Zm0,19.77H377A10.28,10.28,0,0,0,380,123a3.84,3.84,0,0,0,1.93-1.27,5.41,5.41,0,0,0,1.05-2.4,18.76,18.76,0,0,0,.31-3.76,16.85,16.85,0,0,0-.39-4,5.23,5.23,0,0,0-1.16-2.35,3.65,3.65,0,0,0-2-1.08,13.81,13.81,0,0,0-2.73-.25h-6.63Z"/><path class="cls-1" d="M405.71,84.8l9.88,43.4h-5.08l-1.82-8.51H397.31l-1.87,8.51h-4.81l10.11-43.4Zm-7.4,30.26h9.44l-4.58-22Z"/><path class="cls-1" d="M435.9,90.88a8.85,8.85,0,0,0-2.65-1.38,10.13,10.13,0,0,0-3.14-.45,8,8,0,0,0-5.05,1.55,5.78,5.78,0,0,0-2,4.91,5.91,5.91,0,0,0,1.16,4,8,8,0,0,0,3,2.1,29.15,29.15,0,0,0,4.19,1.32,24.22,24.22,0,0,1,4.58,1.6,10,10,0,0,1,4.34,3.81,13.32,13.32,0,0,1,1.41,6.74q0,6.78-3.12,10.38T429.11,129a13.25,13.25,0,0,1-5.6-1,8.41,8.41,0,0,1-3.42-2.79,10.53,10.53,0,0,1-1.71-4.11,25.2,25.2,0,0,1-.47-5v-.66h4.85v.66a18.06,18.06,0,0,0,.25,3,6.43,6.43,0,0,0,1,2.51,5,5,0,0,0,2,1.71,7.45,7.45,0,0,0,3.36.64,8.12,8.12,0,0,0,3.4-.64,5.82,5.82,0,0,0,2.29-1.79,7.31,7.31,0,0,0,1.27-2.76,15.19,15.19,0,0,0,.39-3.59,7.53,7.53,0,0,0-.78-3.83A6.06,6.06,0,0,0,433,109a17.17,17.17,0,0,0-2.43-.88l-2.7-.8c-.92-.28-1.83-.58-2.73-.92a12.11,12.11,0,0,1-2.52-1.26Q418,102.59,418,95.84a13.77,13.77,0,0,1,1-5.6,9.79,9.79,0,0,1,2.7-3.67,10.45,10.45,0,0,1,3.95-2,18.46,18.46,0,0,1,4.75-.6,16.83,16.83,0,0,1,5.63.91,12.85,12.85,0,0,1,4.64,2.84v8.34H435.9Z"/><path class="cls-1" d="M468.36,84.8v5.08h-17.5v13.2h16.9V108h-16.9v15.13h17.56v5.08H445.73V84.8Z"/><path class="cls-1" d="M274.92,157.12a9.33,9.33,0,0,0-2.65-1.38,10.45,10.45,0,0,0-3.14-.44,8,8,0,0,0-5.05,1.55,5.78,5.78,0,0,0-2,4.91,5.93,5.93,0,0,0,1.16,4,8,8,0,0,0,3,2.09,27.92,27.92,0,0,0,4.19,1.33,24,24,0,0,1,4.58,1.6,10,10,0,0,1,4.34,3.81,13.29,13.29,0,0,1,1.41,6.74q0,6.78-3.12,10.37t-9.53,3.59a13.25,13.25,0,0,1-5.6-1,8.47,8.47,0,0,1-3.42-2.79,10.6,10.6,0,0,1-1.71-4.11,25.2,25.2,0,0,1-.47-5v-.66h4.85v.66a18.06,18.06,0,0,0,.25,3,6.49,6.49,0,0,0,1,2.51,5,5,0,0,0,2,1.71,7.45,7.45,0,0,0,3.36.64,8.12,8.12,0,0,0,3.4-.64,5.82,5.82,0,0,0,2.29-1.79,7.31,7.31,0,0,0,1.27-2.76,15.19,15.19,0,0,0,.39-3.59,7.6,7.6,0,0,0-.78-3.84,6,6,0,0,0-2.87-2.23,18.48,18.48,0,0,0-2.43-.89c-.88-.25-1.78-.52-2.7-.8s-1.83-.58-2.73-.91a11.68,11.68,0,0,1-2.52-1.27q-4.64-2.59-4.63-9.33a13.74,13.74,0,0,1,1-5.6,9.79,9.79,0,0,1,2.7-3.67,10.52,10.52,0,0,1,3.95-2,18.46,18.46,0,0,1,4.75-.61,17.09,17.09,0,0,1,5.63.91,13,13,0,0,1,4.64,2.85v8.33h-4.81Z"/><path class="cls-1" d="M288,151.05l7.78,15,7.9-15h5.52l-10.82,20.1v23.29H293.2V171.15l-10.88-20.1Z"/><path class="cls-1" d="M328.58,157.12a9.33,9.33,0,0,0-2.65-1.38,10.4,10.4,0,0,0-3.14-.44,8,8,0,0,0-5.05,1.55,5.78,5.78,0,0,0-2,4.91,5.93,5.93,0,0,0,1.16,4,8,8,0,0,0,3,2.09,27.92,27.92,0,0,0,4.19,1.33,24,24,0,0,1,4.58,1.6,10,10,0,0,1,4.34,3.81,13.29,13.29,0,0,1,1.41,6.74q0,6.78-3.12,10.37t-9.53,3.59a13.25,13.25,0,0,1-5.6-1,8.47,8.47,0,0,1-3.42-2.79,10.6,10.6,0,0,1-1.71-4.11,25.2,25.2,0,0,1-.47-5v-.66h4.85v.66a18.06,18.06,0,0,0,.25,3,6.49,6.49,0,0,0,1,2.51,5,5,0,0,0,2,1.71,7.45,7.45,0,0,0,3.36.64,8.12,8.12,0,0,0,3.4-.64,5.82,5.82,0,0,0,2.29-1.79A7.31,7.31,0,0,0,329,185a15.19,15.19,0,0,0,.39-3.59,7.6,7.6,0,0,0-.78-3.84,6,6,0,0,0-2.87-2.23,18.48,18.48,0,0,0-2.43-.89c-.88-.25-1.78-.52-2.7-.8s-1.83-.58-2.73-.91a11.68,11.68,0,0,1-2.52-1.27q-4.63-2.59-4.63-9.33a13.74,13.74,0,0,1,1-5.6,9.79,9.79,0,0,1,2.7-3.67,10.52,10.52,0,0,1,3.95-2,18.46,18.46,0,0,1,4.75-.61,17.09,17.09,0,0,1,5.63.91,12.93,12.93,0,0,1,4.64,2.85v8.33h-4.81Z"/><path class="cls-1" d="M361.38,151.05v5.08h-9.33v38.31h-5.19V156.13h-9.33v-5.08Z"/><path class="cls-1" d="M387.87,151.05v5.08h-17.5v13.19h16.9v4.92h-16.9v15.12h17.56v5.08H365.24V151.05Z"/><path class="cls-1" d="M395.33,151.05l7.78,19.43,7.73-19.43h4.47v43.39h-4.64V160.93L404,178.6h-1.71L395.55,161v33.45h-4.64V151.05Z"/><path class="cls-1" d="M523.49,11.5v190h95V11.5Zm91,117.52H527.55V14.79h86.89Z"/><path class="cls-2" d="M74,48.24a56.46,56.46,0,0,1,14.79,1.63A18.26,18.26,0,0,1,98,55.38a22.75,22.75,0,0,1,4.74,10.51,84.2,84.2,0,0,1,1.36,16.48,82.89,82.89,0,0,1-1.36,16.47A22.62,22.62,0,0,1,98,109.22a17.84,17.84,0,0,1-9.21,5.45A58.58,58.58,0,0,1,74,116.23H61.88v34H49.81v-102ZM61.88,104.68h13a33.17,33.17,0,0,0,8.5-.9,9.78,9.78,0,0,0,5.26-3.38,15.26,15.26,0,0,0,2.72-6.81,64.69,64.69,0,0,0,.78-11.09,64.82,64.82,0,0,0-.78-11.1,15.36,15.36,0,0,0-2.72-6.81,10.17,10.17,0,0,0-5.26-3.44,30.76,30.76,0,0,0-8.5-1h-13Z"/><path class="cls-2" d="M139.76,164.76A56.41,56.41,0,0,1,125,163.13a18.26,18.26,0,0,1-9.21-5.51A22.75,22.75,0,0,1,111,147.11a83.43,83.43,0,0,1-1.36-16.48A82.14,82.14,0,0,1,111,114.16a22.62,22.62,0,0,1,4.74-10.38A17.84,17.84,0,0,1,125,98.33a58.53,58.53,0,0,1,14.79-1.56h12.07v-34h12.06v102Zm12.07-56.44h-13a33.22,33.22,0,0,0-8.5.9,9.79,9.79,0,0,0-5.25,3.38,15.15,15.15,0,0,0-2.73,6.81,65.87,65.87,0,0,0-.77,11.09,66,66,0,0,0,.77,11.1,15.25,15.25,0,0,0,2.73,6.81,10.18,10.18,0,0,0,5.25,3.44,30.8,30.8,0,0,0,8.5,1h13Z"/><polygon class="cls-2" points="81.73 184.53 48 184.53 48 162.89 55.47 162.89 55.47 177.07 76.55 177.07 131.98 28.46 165.71 28.46 165.71 50.11 158.24 50.11 158.24 35.93 137.16 35.93 81.73 184.53"/><path class="cls-2" d="M540.42,147l6.32,31.07L553.51,147H558l-9,38.83h-4.44L535.68,147Z"/><path class="cls-2" d="M567.44,181.87c0-2.8,1.13-4.2,3.41-4.2s3.4,1.4,3.4,4.2-1.13,4.34-3.4,4.34S567.44,184.76,567.44,181.87Z"/><path class="cls-2" d="M587.74,155.19c2.2,0,3.72-.53,4.54-1.6s1.24-2.8,1.24-5.17V147h3.85v34.68h6.72v4.15H585.71v-4.15H593V157.76a8,8,0,0,1-4.84,1.38H586v-3.95Z"/><rect class="cls-1" x="529.32" y="17.27" width="27.67" height="21.86"/><rect class="cls-1" x="556.99" y="39.13" width="27.67" height="21.86"/><rect class="cls-1" x="584.66" y="61" width="27.67" height="21.86"/><rect class="cls-1" x="529.32" y="61" width="27.67" height="21.86"/><rect class="cls-1" x="556.99" y="82.86" width="27.67" height="21.86"/><rect class="cls-1" x="584.66" y="104.72" width="27.67" height="21.86"/></g></g></svg>