<svg xmlns="http://www.w3.org/2000/svg" viewBox="0 0 633 213"><defs><style>.cls-1{fill:#fff;}.cls-2{fill:#3c3c3b;}</style></defs><title>Ativo 3</title><g id="Camada_2" data-name="Camada 2"><g id="Camada_1-2" data-name="Camada 1"><path class="cls-1" d="M633,213H0V0H633ZM3,210H630V3H3Z"/><rect class="cls-1" x="11.85" y="11.5" width="190" height="190"/><path class="cls-1" d="M228.26,17.41a24.08,24.08,0,0,1,6.3.69,7.85,7.85,0,0,1,3.92,2.34,9.84,9.84,0,0,1,2,4.47,35.38,35.38,0,0,1,.58,7,34.79,34.79,0,0,1-.58,7,9.7,9.7,0,0,1-2,4.41,7.61,7.61,0,0,1-3.92,2.32,25.13,25.13,0,0,1-6.3.66h-5.13V60.8H218V17.41Zm-5.13,24h5.52a13.79,13.79,0,0,0,3.61-.39,4.1,4.1,0,0,0,2.24-1.43,6.51,6.51,0,0,0,1.16-2.9A27.62,27.62,0,0,0,236,32a27.7,27.7,0,0,0-.33-4.72,6.51,6.51,0,0,0-1.16-2.9,4.32,4.32,0,0,0-2.24-1.46,12.9,12.9,0,0,0-3.61-.41h-5.52Z"/><path class="cls-1" d="M267.46,17.41v5.08H250V35.68h16.89v4.91H250V55.72h17.55V60.8H244.82V17.41Z"/><path class="cls-1" d="M282.47,17.41a25.13,25.13,0,0,1,6,.6,7.6,7.6,0,0,1,3.76,2.1,8.43,8.43,0,0,1,1.93,3.95,28.6,28.6,0,0,1,.55,6.15,30.32,30.32,0,0,1-.39,5.3,9.67,9.67,0,0,1-1.29,3.57,6,6,0,0,1-2.46,2.15,12.2,12.2,0,0,1-3.92,1l9,18.55H290l-8.66-18.33h-4.53V60.8h-5.14V17.41Zm-5.68,20.7h6.07a15.24,15.24,0,0,0,3.34-.3,4,4,0,0,0,2.07-1.14,4.64,4.64,0,0,0,1.08-2.34,21.07,21.07,0,0,0,.3-3.95,22,22,0,0,0-.3-4,5.3,5.3,0,0,0-1.08-2.49,4.06,4.06,0,0,0-2.07-1.27,12.79,12.79,0,0,0-3.34-.36h-6.07Z"/><path class="cls-1" d="M315.49,23.48a9,9,0,0,0-2.65-1.38,10.16,10.16,0,0,0-3.15-.44,8.05,8.05,0,0,0-5.05,1.54,5.82,5.82,0,0,0-2,4.92,5.9,5.9,0,0,0,1.16,4,8.17,8.17,0,0,0,3,2.1,26.63,26.63,0,0,0,4.2,1.32,24.51,24.51,0,0,1,4.58,1.61,9.9,9.9,0,0,1,4.33,3.8,13.32,13.32,0,0,1,1.41,6.74q0,6.8-3.12,10.38t-9.52,3.59a13.3,13.3,0,0,1-5.61-1,8.55,8.55,0,0,1-3.42-2.79A10.64,10.64,0,0,1,298,53.7a25.87,25.87,0,0,1-.47-5.05V48h4.86v.66a17,17,0,0,0,.25,3,6.37,6.37,0,0,0,1,2.52,5.06,5.06,0,0,0,2,1.71,7.64,7.64,0,0,0,3.37.63,8.27,8.27,0,0,0,3.39-.63,5.69,5.69,0,0,0,2.29-1.8,7.16,7.16,0,0,0,1.27-2.76,15.13,15.13,0,0,0,.39-3.59,7.65,7.65,0,0,0-.77-3.83,6.11,6.11,0,0,0-2.87-2.24,19.62,19.62,0,0,0-2.43-.88l-2.71-.8c-.92-.28-1.83-.58-2.73-.91a12.07,12.07,0,0,1-2.51-1.27q-4.64-2.6-4.64-9.33a13.79,13.79,0,0,1,1-5.61,9.78,9.78,0,0,1,2.71-3.67,10.25,10.25,0,0,1,3.94-2,18.09,18.09,0,0,1,4.75-.61,16.79,16.79,0,0,1,5.63.91,12.9,12.9,0,0,1,4.64,2.84v8.34h-4.8Z"/><path class="cls-1" d="M336.3,16.8a38.39,38.39,0,0,1,4.11.19,7.74,7.74,0,0,1,3.09.94,5.88,5.88,0,0,1,2.16,2.21A13.35,13.35,0,0,1,347,24.09a43.16,43.16,0,0,1,.74,6.15q.23,3.68.22,8.92c0,3.49-.07,6.47-.22,8.91a43.51,43.51,0,0,1-.74,6.16,13,13,0,0,1-1.38,3.92,5.71,5.71,0,0,1-2.16,2.15,8.07,8.07,0,0,1-3.09.91,42.33,42.33,0,0,1-8.22,0,8.17,8.17,0,0,1-3.1-.91,5.76,5.76,0,0,1-2.15-2.15,13,13,0,0,1-1.38-3.92,42.09,42.09,0,0,1-.74-6.16c-.15-2.44-.22-5.42-.22-8.91s.07-6.47.22-8.92a41.76,41.76,0,0,1,.74-6.15,13.35,13.35,0,0,1,1.38-3.95,5.94,5.94,0,0,1,2.15-2.21,7.84,7.84,0,0,1,3.1-.94A38.39,38.39,0,0,1,336.3,16.8Zm0,5a11.85,11.85,0,0,0-3.34.39,3.37,3.37,0,0,0-2,2.1,16.91,16.91,0,0,0-1,5.19q-.28,3.48-.28,9.66c0,4.08.09,7.29.28,9.6a16.91,16.91,0,0,0,1,5.19,3.37,3.37,0,0,0,2,2.1,14.5,14.5,0,0,0,6.68,0,3.39,3.39,0,0,0,2-2.1,16.91,16.91,0,0,0,1-5.19c.19-2.31.28-5.52.28-9.6s-.09-7.34-.28-9.66a16.91,16.91,0,0,0-1-5.19,3.39,3.39,0,0,0-2-2.1A11.9,11.9,0,0,0,336.3,21.82Z"/><path class="cls-1" d="M356.89,17.41l13,31v-31h4.64V60.8h-3.81l-14.3-33.07V60.8h-4.64V17.41Z"/><path class="cls-1" d="M392.61,17.41l9.88,43.39h-5.08l-1.82-8.5H384.22l-1.88,8.5h-4.8l10.1-43.39Zm-7.4,30.25h9.44l-4.58-22Z"/><path class="cls-1" d="M411.43,17.41V55.72h16.79V60.8H406.3V17.41Z"/><path class="cls-1" d="M228.76,83.65A11.26,11.26,0,0,1,234.5,85a9.19,9.19,0,0,1,3.59,4,21.69,21.69,0,0,1,1.85,6.79,77.32,77.32,0,0,1,.52,9.64,76.48,76.48,0,0,1-.52,9.63,21.52,21.52,0,0,1-1.85,6.73,9,9,0,0,1-3.59,4,11.47,11.47,0,0,1-5.74,1.3H218V83.65ZM223,122h5.74A5.34,5.34,0,0,0,232,121a6.33,6.33,0,0,0,2-3,20.82,20.82,0,0,0,1.05-5.17c.2-2.09.3-4.6.3-7.5s-.1-5.41-.3-7.51A21.1,21.1,0,0,0,234,92.71a6.48,6.48,0,0,0-2-3,5.28,5.28,0,0,0-3.26-1H223Z"/><path class="cls-1" d="M258.46,83.65l9.88,43.4h-5.08l-1.82-8.51H250.07l-1.88,8.51h-4.8l10.1-43.4Zm-7.4,30.26h9.44l-4.58-22Z"/><path class="cls-1" d="M294.62,83.65v5.08h-9.33v38.32H280.1V88.73h-9.33V83.65Z"/><path class="cls-1" d="M312.12,83.65l9.88,43.4h-5.08l-1.82-8.51H303.73l-1.88,8.51h-4.8l10.1-43.4Zm-7.4,30.26h9.44l-4.58-22Z"/><path class="cls-1" d="M337.13,83.65c3.71,0,6.36.81,7.92,2.43s2.35,4.35,2.35,8.17a18.52,18.52,0,0,1-.91,6.41,7.92,7.92,0,0,1-2.41,3.53,8,8,0,0,1,3.09,3.76,18.44,18.44,0,0,1,1.22,7.5,20.23,20.23,0,0,1-.61,5.36,8.57,8.57,0,0,1-1.87,3.59,7.38,7.38,0,0,1-3.32,2,16.43,16.43,0,0,1-4.91.64H325.31V83.65Zm-6.68,18.77h6.73a10.29,10.29,0,0,0,2.54-.27,3.45,3.45,0,0,0,1.71-1,4.54,4.54,0,0,0,1-2.07,16.4,16.4,0,0,0,.3-3.48,16.16,16.16,0,0,0-.3-3.4,5.22,5.22,0,0,0-1-2.18,3.48,3.48,0,0,0-1.79-1.16,10.11,10.11,0,0,0-2.79-.33h-6.4Zm0,19.77h6.62a10.41,10.41,0,0,0,3-.36,3.89,3.89,0,0,0,1.93-1.27,5.53,5.53,0,0,0,1.05-2.4,19.55,19.55,0,0,0,.3-3.76,16.85,16.85,0,0,0-.39-4.05,5.13,5.13,0,0,0-1.16-2.35,3.62,3.62,0,0,0-2-1.08,13.86,13.86,0,0,0-2.73-.24h-6.62Z"/><path class="cls-1" d="M365.78,83.65l9.88,43.4h-5.08l-1.82-8.51H357.39l-1.88,8.51h-4.8l10.1-43.4Zm-7.4,30.26h9.44l-4.58-22Z"/><path class="cls-1" d="M396,89.73a9,9,0,0,0-2.65-1.38,10.16,10.16,0,0,0-3.15-.44,8.05,8.05,0,0,0-5.05,1.54,5.81,5.81,0,0,0-2,4.91,5.91,5.91,0,0,0,1.16,4,8.17,8.17,0,0,0,3,2.1,27.72,27.72,0,0,0,4.2,1.32,24.46,24.46,0,0,1,4.58,1.6,10,10,0,0,1,4.33,3.81,13.32,13.32,0,0,1,1.41,6.74q0,6.78-3.12,10.38t-9.52,3.59a13.29,13.29,0,0,1-5.61-1,8.53,8.53,0,0,1-3.42-2.78,10.64,10.64,0,0,1-1.71-4.12,25.87,25.87,0,0,1-.47-5v-.66h4.86v.66a17,17,0,0,0,.25,3,6.27,6.27,0,0,0,1,2.51,5.08,5.08,0,0,0,2,1.72,7.64,7.64,0,0,0,3.37.63,8.27,8.27,0,0,0,3.39-.63,5.94,5.94,0,0,0,2.29-1.8,7.16,7.16,0,0,0,1.27-2.76,15.19,15.19,0,0,0,.39-3.59,7.65,7.65,0,0,0-.77-3.83,6.16,6.16,0,0,0-2.87-2.24,18.12,18.12,0,0,0-2.43-.88l-2.71-.8c-.92-.28-1.83-.58-2.73-.91a12.58,12.58,0,0,1-2.51-1.27q-4.64-2.59-4.64-9.33a13.79,13.79,0,0,1,1-5.61,9.78,9.78,0,0,1,2.71-3.67,10.41,10.41,0,0,1,3.94-2,18.51,18.51,0,0,1,4.75-.6,16.79,16.79,0,0,1,5.63.91,12.77,12.77,0,0,1,4.64,2.84v8.34H396Z"/><path class="cls-1" d="M428.44,83.65v5.08h-17.5v13.2h16.89v4.91H410.94V122h17.55v5.08H405.8V83.65Z"/><path class="cls-1" d="M235,156a9.25,9.25,0,0,0-2.65-1.39,10.47,10.47,0,0,0-3.15-.44,8.06,8.06,0,0,0-5,1.55,5.81,5.81,0,0,0-2,4.91,5.93,5.93,0,0,0,1.16,4,8.17,8.17,0,0,0,3,2.1,28.9,28.9,0,0,0,4.2,1.32,24.46,24.46,0,0,1,4.58,1.6,10,10,0,0,1,4.33,3.81,13.29,13.29,0,0,1,1.41,6.74q0,6.78-3.12,10.37t-9.52,3.59a13.3,13.3,0,0,1-5.61-1,8.47,8.47,0,0,1-3.42-2.79,10.53,10.53,0,0,1-1.71-4.11,26,26,0,0,1-.47-5v-.66h4.86v.66a17,17,0,0,0,.25,3,6.33,6.33,0,0,0,1,2.51,5,5,0,0,0,2,1.71,7.49,7.49,0,0,0,3.37.64,8.11,8.11,0,0,0,3.39-.64,5.75,5.75,0,0,0,2.29-1.79,7.16,7.16,0,0,0,1.27-2.76,15.19,15.19,0,0,0,.39-3.59,7.72,7.72,0,0,0-.77-3.84,6.1,6.1,0,0,0-2.87-2.23,19.61,19.61,0,0,0-2.43-.89c-.89-.25-1.79-.52-2.71-.8s-1.83-.57-2.73-.91a11.6,11.6,0,0,1-2.51-1.27q-4.63-2.6-4.64-9.33a13.77,13.77,0,0,1,1-5.6,9.7,9.7,0,0,1,2.71-3.67,10.41,10.41,0,0,1,3.94-2,18.51,18.51,0,0,1,4.75-.61,16.79,16.79,0,0,1,5.63.92,12.77,12.77,0,0,1,4.64,2.84v8.34H235Z"/><path class="cls-1" d="M248.08,149.9l7.79,15,7.89-15h5.52L258.46,170v23.29h-5.19V170L242.4,149.9Z"/><path class="cls-1" d="M288.66,156a9.25,9.25,0,0,0-2.65-1.39,10.47,10.47,0,0,0-3.15-.44,8.06,8.06,0,0,0-5.05,1.55,5.81,5.81,0,0,0-2,4.91,5.93,5.93,0,0,0,1.16,4,8.17,8.17,0,0,0,3,2.1,28.9,28.9,0,0,0,4.2,1.32,24.46,24.46,0,0,1,4.58,1.6,10,10,0,0,1,4.33,3.81,13.29,13.29,0,0,1,1.41,6.74q0,6.78-3.12,10.37t-9.52,3.59a13.3,13.3,0,0,1-5.61-1,8.47,8.47,0,0,1-3.42-2.79,10.53,10.53,0,0,1-1.71-4.11,26,26,0,0,1-.47-5v-.66h4.86v.66a17,17,0,0,0,.25,3,6.33,6.33,0,0,0,1,2.51,5,5,0,0,0,2,1.71,7.49,7.49,0,0,0,3.37.64,8.11,8.11,0,0,0,3.39-.64,5.75,5.75,0,0,0,2.29-1.79A7.16,7.16,0,0,0,289,183.8a15.19,15.19,0,0,0,.39-3.59,7.72,7.72,0,0,0-.77-3.84,6.1,6.1,0,0,0-2.87-2.23,19.61,19.61,0,0,0-2.43-.89c-.89-.25-1.79-.52-2.71-.8s-1.83-.57-2.73-.91a11.6,11.6,0,0,1-2.51-1.27q-4.64-2.6-4.64-9.33a13.77,13.77,0,0,1,1-5.6,9.7,9.7,0,0,1,2.71-3.67,10.48,10.48,0,0,1,3.94-2,18.51,18.51,0,0,1,4.75-.61,16.79,16.79,0,0,1,5.63.92,12.77,12.77,0,0,1,4.64,2.84v8.34h-4.8Z"/><path class="cls-1" d="M321.45,149.9V155h-9.33v38.31h-5.19V155H297.6V149.9Z"/><path class="cls-1" d="M348,149.9V155h-17.5v13.2h16.89v4.91H330.45v15.13H348v5.07H325.31V149.9Z"/><path class="cls-1" d="M355.4,149.9l7.78,19.43,7.73-19.43h4.48v43.39h-4.64V159.78l-6.68,17.67h-1.71l-6.74-17.61v33.45H351V149.9Z"/><path class="cls-1" d="M426,172.59v4.81H407.74v-4.81Z"/><path class="cls-1" d="M463.33,149.9l7.06,34.73L478,149.9h5l-10.1,43.39h-5L458,149.9Z"/><path class="cls-1" d="M493.53,188.88q0-4.69,3.8-4.69c2.55,0,3.81,1.56,3.81,4.69s-1.26,4.86-3.81,4.86S493.53,192.12,493.53,188.88Z"/><path class="cls-1" d="M516.22,159.07q3.69,0,5.07-1.8c.92-1.19,1.38-3.12,1.38-5.77v-1.6H527v38.76h7.51v4.63H514v-4.63h8.17V161.94a8.89,8.89,0,0,1-5.41,1.54h-2.43v-4.41Z"/><path class="cls-2" d="M74,48.24a56.46,56.46,0,0,1,14.79,1.63A18.26,18.26,0,0,1,98,55.38a22.75,22.75,0,0,1,4.74,10.51,84.2,84.2,0,0,1,1.36,16.48,82.89,82.89,0,0,1-1.36,16.47A22.62,22.62,0,0,1,98,109.22a17.84,17.84,0,0,1-9.21,5.45A58.58,58.58,0,0,1,74,116.23H61.88v34H49.81v-102ZM61.88,104.68h13a33.17,33.17,0,0,0,8.5-.9,9.78,9.78,0,0,0,5.26-3.38,15.26,15.26,0,0,0,2.72-6.81,64.69,64.69,0,0,0,.78-11.09,64.82,64.82,0,0,0-.78-11.1,15.36,15.36,0,0,0-2.72-6.81,10.17,10.17,0,0,0-5.26-3.44,30.76,30.76,0,0,0-8.5-1h-13Z"/><path class="cls-2" d="M139.76,164.76A56.41,56.41,0,0,1,125,163.13a18.26,18.26,0,0,1-9.21-5.51A22.75,22.75,0,0,1,111,147.11a83.43,83.43,0,0,1-1.36-16.48A82.14,82.14,0,0,1,111,114.16a22.62,22.62,0,0,1,4.74-10.38A17.84,17.84,0,0,1,125,98.33a58.53,58.53,0,0,1,14.79-1.56h12.07v-34h12.06v102Zm12.07-56.44h-13a33.22,33.22,0,0,0-8.5.9,9.79,9.79,0,0,0-5.25,3.38,15.15,15.15,0,0,0-2.73,6.81,65.87,65.87,0,0,0-.77,11.09,66,66,0,0,0,.77,11.1,15.25,15.25,0,0,0,2.73,6.81,10.18,10.18,0,0,0,5.25,3.44,30.8,30.8,0,0,0,8.5,1h13Z"/><polygon class="cls-2" points="81.73 184.53 48 184.53 48 162.89 55.47 162.89 55.47 177.07 76.55 177.07 131.98 28.46 165.71 28.46 165.71 50.11 158.24 50.11 158.24 35.93 137.16 35.93 81.73 184.53"/></g></g></svg>