<svg xmlns="http://www.w3.org/2000/svg" viewBox="0 0 620.29 822.49"><defs><style>.cls-1{fill:#fff;}</style></defs><title>Ativo 3</title><g id="Camada_2" data-name="Camada 2"><g id="Camada_1-2" data-name="Camada 1"><path class="cls-1" d="M136.73,104.23q47.18,0,77.94,8.55t48.55,29.06q17.77,20.52,25,55.39t7.18,86.83q0,52.67-7.18,86.84t-25,54.7q-17.79,20.52-48.55,28.72t-77.94,8.2H73.14V641.67H9.55V104.23ZM73.14,401.67h68.37q27.35,0,44.79-4.79T214,379.11q10.26-13,14.36-35.9t4.1-58.46q0-35.55-4.1-58.46T214,190.39q-10.26-13-27.69-18.12t-44.79-5.13H73.14Z"/><path class="cls-1" d="M483.56,718.25q-47.18,0-77.94-8.55t-48.55-29.06q-17.77-20.5-25-55.38t-7.18-86.84q0-52.66,7.18-86.83t25-54.71q17.79-20.5,48.55-28.71T483.56,360h63.59V180.82h63.59V718.25Zm63.59-297.43H478.78q-27.34,0-44.79,4.78T406.3,443.38q-10.26,13-14.36,35.9t-4.1,58.46q0,35.53,4.1,58.46t14.36,35.9q10.26,13,27.69,18.12t44.79,5.13h68.37Z"/><polygon class="cls-1" points="177.74 822.49 0 822.49 0 708.39 39.34 708.39 39.34 783.14 150.42 783.14 442.55 0 620.29 0 620.29 114.09 580.95 114.09 580.95 39.34 469.87 39.34 177.74 822.49"/></g></g></svg>